<svg width="105" height="114" viewBox="0 0 105 114" fill="none" xmlns="http://www.w3.org/2000/svg">
<g clip-path="url(#clip0_342_168)">
<path d="M84.4286 3.90112C81.1194 3.90112 24.2252 3.90112 20.5773 3.90112L0.5 31.2791L52.7157 100.099L104.5 31.2712L84.4286 3.90112ZM29.0454 34.2869L43.7566 78.2371L10.4102 34.2869H29.0454ZM35.4542 34.2869H69.5697L52.629 85.5977L35.4542 34.2869ZM75.9698 34.2869H94.6262L61.3812 78.4733L75.9698 34.2869ZM81.3487 9.97828L94.7184 28.2097H75.9738L69.9917 9.97828H81.3487ZM63.5957 9.97828L69.5778 28.2097H35.4278L41.41 9.97828H63.5957ZM23.6568 9.97828H35.0138L29.0316 28.2097H10.2871L23.6568 9.97828Z" fill="#F8D7A4"/>
</g>
<defs>
<clipPath id="clip0_342_168">
<rect width="104" height="114" fill="white" transform="translate(0.5)"/>
</clipPath>
</defs>
</svg>
