<svg width="712" height="711" viewBox="0 0 712 711" fill="none" xmlns="http://www.w3.org/2000/svg">
<path fill-rule="evenodd" clip-rule="evenodd" d="M805.011 142.38C862.61 215.417 907.755 309.306 890.724 400.758C874.422 488.298 786.645 538.555 720.193 597.837C668.125 644.289 615.847 692.607 547.553 706.909C483.357 720.352 422.605 687.571 358.533 673.573C284.69 657.439 203.935 665.118 144.219 618.789C73.3375 563.796 -14.466 485.625 2.79895 397.582C20.772 305.928 154.369 298.095 220.117 231.747C270.809 180.592 278.497 96.466 339.354 57.9565C410.101 13.1888 496.187 -10.0048 578.558 4.92918C667.627 21.0775 748.961 71.3089 805.011 142.38Z" fill="#F8D7A4"/>
</svg>
