<svg width="89" height="100" viewBox="0 0 89 100" fill="none" xmlns="http://www.w3.org/2000/svg">
<path d="M87.5 74.2528C87.4975 71.0653 86.566 67.9356 84.8009 65.1842C83.0358 62.4327 80.5004 60.1581 77.4542 58.5933L60.1669 49.7285C61.8159 48.4756 63.1743 46.9355 64.1627 45.1983C65.151 43.4612 65.7496 41.5618 65.9232 39.6112L70.8186 37.3792C71.5259 37.0599 72.1209 36.5663 72.5359 35.9543C72.951 35.3424 73.1695 34.6366 73.1667 33.9171V31.3267C73.1637 30.3006 72.7166 29.317 71.9226 28.5896C71.3666 28.0791 70.6647 27.7209 69.8967 27.5555C69.1287 27.3902 68.3252 27.4243 67.5773 27.6541L66 28.1335V24.1516L67.7068 22.8179C68.2958 22.3582 68.7686 21.7875 69.0925 21.1452C69.4165 20.503 69.5839 19.8044 69.5833 19.0975V17.3333C69.5807 16.6271 69.4095 15.9298 69.0817 15.2898C68.7539 14.6499 68.2773 14.0827 67.6849 13.6274L67.7226 13.6176L65.6247 6.92247C65.084 5.21918 63.9525 3.72148 62.3996 2.65376C60.8467 1.58605 58.9561 1.00581 57.011 1H31.989C30.0439 1.00581 28.1533 1.58605 26.6004 2.65376C25.0475 3.72148 23.916 5.21918 23.3753 6.92247L21.2774 13.6177L21.3151 13.6275C20.7227 14.0827 20.2461 14.6499 19.9183 15.2899C19.5905 15.9298 19.4193 16.6271 19.4167 17.3333V19.0975C19.4161 19.8044 19.5836 20.503 19.9075 21.1452C20.2314 21.7875 20.7042 22.3582 21.2932 22.8179L23 24.1515V28.1336L21.4227 27.6541C20.6748 27.4245 19.8714 27.3904 19.1034 27.5557C18.3353 27.7211 17.6335 28.0792 17.0774 28.5896C16.2834 29.317 15.8363 30.3006 15.8333 31.3267V33.9171C15.8305 34.6365 16.0489 35.3422 16.4638 35.9542C16.8787 36.5661 17.4734 37.0598 18.1805 37.3792L23.0768 39.6113C23.2504 41.5618 23.849 43.4612 24.8373 45.1984C25.8257 46.9356 27.1841 48.4757 28.8331 49.7286L11.5457 58.5934C8.49961 60.1582 5.96424 62.4327 4.19912 65.1842C2.434 67.9357 1.50251 71.0653 1.5 74.2528V99H87.5V74.2528ZM75.9753 61.6063L63.4035 74.5H57.0417V82.1722L50.9738 90.4697L53.3953 75.0183L64.7354 55.8192L75.6976 61.4404C75.7949 61.4905 75.8794 61.5547 75.9753 61.6063ZM35.015 53.8983C36.6719 54.9831 38.5401 55.7705 40.5198 56.2188L40.3918 56.3356C39.384 57.2545 38.8179 58.5006 38.8179 59.8C38.8179 61.0994 39.384 62.3455 40.3918 63.2644L40.584 63.4397L37.1499 70.7443L27.3881 54.2175L31.9605 51.8729L35.015 53.8983ZM57.0395 51.873L61.6119 54.2176L51.8501 70.7443L48.416 63.4397L48.6082 63.2644C49.616 62.3455 50.1821 61.0994 50.1821 59.8C50.1821 58.5006 49.616 57.2545 48.6082 56.3356L48.4802 56.2188C50.46 55.7706 52.3281 54.9831 53.9851 53.8983L57.0395 51.873ZM43.2333 61.2356L42.9253 60.9548C42.59 60.6482 42.4018 60.2329 42.4018 59.8C42.4018 59.3671 42.59 58.9518 42.9253 58.6452L43.2333 58.3644C43.5695 58.0585 44.0251 57.8867 44.5001 57.8867C44.975 57.8867 45.4306 58.0585 45.7668 58.3644L46.0748 58.6452C46.4101 58.9518 46.5983 59.3671 46.5983 59.8C46.5983 60.2329 46.4101 60.6482 46.0748 60.9548L45.7668 61.2356C45.4305 61.5412 44.975 61.7129 44.5001 61.7129C44.0251 61.7129 43.5696 61.5412 43.2333 61.2356ZM39.1781 74.722L43.7877 64.9166C44.2581 65.0012 44.742 65.0012 45.2124 64.9166L49.822 74.722L46.5297 95.7333H42.4703L39.1781 74.722ZM68.7111 30.7533C68.8108 30.7231 68.9169 30.7148 69.0207 30.7293C69.1245 30.7437 69.223 30.7805 69.3082 30.8365C69.3934 30.8925 69.4628 30.9661 69.5106 31.0514C69.5584 31.1366 69.5834 31.231 69.5833 31.3267V33.9171C69.5839 34.0294 69.5498 34.1395 69.485 34.235C69.4202 34.3304 69.3272 34.4074 69.2168 34.457L66 35.9235V31.5774L68.7111 30.7533ZM62.4167 22.649L56.0977 27.5871C55.1231 28.3479 53.8824 28.7662 52.5992 28.7667H36.4008C35.1179 28.7664 33.8774 28.348 32.9032 27.5871L26.5833 22.6488V22.2333H62.4167V22.649ZM66 18.9667H23V17.3333C23.0006 16.9003 23.1896 16.4852 23.5254 16.179C23.8613 15.8728 24.3167 15.7006 24.7917 15.7H64.2083C64.6833 15.7006 65.1387 15.8728 65.4745 16.179C65.8104 16.4852 65.9994 16.9003 66 17.3333V18.9667ZM26.8204 7.82044C27.1447 6.79831 27.8236 5.89951 28.7554 5.25881C29.6873 4.6181 30.8218 4.26999 31.989 4.26667H57.011C58.1782 4.26999 59.3127 4.6181 60.2446 5.25881C61.1764 5.89951 61.8553 6.79831 62.1796 7.82044L63.6249 12.4333H25.3751L26.8204 7.82044ZM19.4167 33.9171V31.3267C19.4166 31.231 19.4416 31.1366 19.4894 31.0514C19.5372 30.9661 19.6066 30.8925 19.6918 30.8365C19.777 30.7805 19.8755 30.7437 19.9793 30.7293C20.0831 30.7148 20.1892 30.7231 20.2889 30.7533L23 31.5774V35.9237L19.7823 34.4569C19.6721 34.4071 19.5794 34.3301 19.5148 34.2347C19.4502 34.1393 19.4162 34.0292 19.4167 33.9171ZM26.5833 38.4462V26.9512L30.5717 30.0674C32.1954 31.3355 34.2627 32.0327 36.4008 32.0333H52.5992C54.7375 32.0326 56.8051 31.3354 58.4291 30.0674L62.4167 26.9516V38.4462C62.4136 40.2491 61.9443 42.0259 61.0469 43.6325C60.1495 45.2391 58.8492 46.6301 57.2516 47.6928L51.8766 51.2569C49.7349 52.6822 47.1517 53.4503 44.5 53.4503C41.8483 53.4503 39.2651 52.6822 37.1234 51.2569L31.7484 47.6928C30.1508 46.6301 28.8505 45.2391 27.9531 43.6325C27.0557 42.0259 26.5864 40.2491 26.5833 38.4462ZM24.2646 55.8193L35.6047 75.0184L38.0262 90.4697L31.9583 82.1722V74.5H25.5965L13.0247 61.6063C13.1206 61.5547 13.2051 61.4905 13.3024 61.4405L24.2646 55.8193ZM5.08333 74.2528C5.08757 72.2528 5.53927 70.2746 6.41081 68.4392C7.28235 66.6038 8.55541 64.9498 10.1521 63.5783L23.9868 77.7667H28.375V83.1611L37.569 95.7333H23V84.3H19.4167V95.7333H5.08333V74.2528ZM83.9167 95.7333H69.5833V84.3H66V95.7333H51.431L60.625 83.1611V77.7667H65.0132L78.8479 63.5783C80.4446 64.9498 81.7176 66.6038 82.5892 68.4392C83.4607 70.2746 83.9124 72.2528 83.9167 74.2528V95.7333Z" fill="#F8D7A4" stroke="#F8D7A4" stroke-width="1.5"/>
</svg>
