<svg width="105" height="104" viewBox="0 0 105 104" fill="none" xmlns="http://www.w3.org/2000/svg">
<path d="M61.046 89.1428H90.0153V96.5714H61.046V89.1428Z" fill="#F8D7A4"/>
<path d="M61.046 74.2858H104.5V81.7143H61.046V74.2858Z" fill="#F8D7A4"/>
<path d="M61.046 59.4286H104.5V66.8572H61.046V59.4286Z" fill="#F8D7A4"/>
<path d="M70.2762 34.2346L53.8035 0L37.3308 34.2346L0.5 39.7243L27.1518 66.3743L20.8582 104L46.5612 90.142V81.7477L30.4796 90.4206L34.2891 67.6297L34.9336 63.778L32.2069 61.0554L16.0638 44.9094L38.3737 41.5851L42.1397 41.0243L43.8272 37.5217L53.8035 16.7849L63.7798 37.5217L65.4673 41.0243L69.2333 41.5851L96.2254 45.6151L97.2574 38.2571L70.2762 34.2346Z" fill="#F8D7A4"/>
</svg>
